<svg width="56" height="72" viewBox="0 0 56 72" fill="none" xmlns="http://www.w3.org/2000/svg">
<path d="M29.9082 3.34863L29.916 3.35938L29.9238 3.37109C31.6652 5.95817 33.2462 7.4677 34.7598 8.45215C36.2803 9.44109 37.8183 9.95846 39.6113 10.4619C43.1764 11.4629 47.1606 12.2374 52.5928 10.9482L52.5938 10.9473L55.1738 10.3369V44.4141L55.0029 44.7402L54.9346 44.8711C54.9124 44.9134 53.5269 47.561 51.4277 50.8281C49.3517 54.0592 46.4628 58.0809 43.4189 60.7314C37.3737 65.9952 31.4227 69.4019 29.2725 70.6709L27.6309 71.7568L25.9238 70.7471C23.7925 69.4885 17.8209 66.0768 11.7549 60.7949C8.71124 58.1445 5.82216 54.1237 3.74609 50.8926C1.65116 47.6321 0.266921 44.9894 0.239258 44.9365L0.170898 44.8047L0 44.4785V10.3984L2.58203 11.0127L3.08594 11.127C8.24673 12.2467 12.0293 11.4367 15.501 10.4619C17.3071 9.95478 18.861 9.452 20.3975 8.47559C21.9224 7.50646 23.5133 6.01467 25.25 3.43457L27.5625 0L29.9082 3.34863Z" fill="white"/>
<path d="M25.2402 46.3372C26.3901 47.6865 27.5871 49.1355 27.5871 49.1355C27.5871 49.1355 29.051 47.4202 30.2048 46.0664" stroke="#1A56DB" stroke-width="0.565496"/>
<path fill-rule="evenodd" clip-rule="evenodd" d="M28.6796 4.20776C32.3365 9.64059 35.5452 10.8776 39.2056 11.9054C42.8981 12.9422 47.1618 13.7778 52.9391 12.4067L53.6742 12.2324V44.0454L53.6057 44.176C53.5975 44.1918 52.2342 46.7979 50.1659 50.0168C48.1042 53.2256 45.3092 57.0959 42.4338 59.5996C36.4834 64.7808 30.6224 68.1309 28.4879 69.3914L27.5871 69.9875L26.6863 69.4553C24.5518 68.1949 18.6908 64.8447 12.7404 59.6636C9.86498 57.1598 7.06999 53.2895 5.00825 50.0807C2.94002 46.8618 1.57672 44.2557 1.56845 44.2399L1.5 44.1093V12.2964L2.2351 12.4706C8.01239 13.8418 12.2139 12.9422 15.9064 11.9054C19.5668 10.8776 22.8377 9.70452 26.4946 4.27169L27.5871 2.64844L28.6796 4.20776ZM15.2344 28.0708C15.2344 21.2095 20.7813 15.6474 27.6237 15.6474C34.4662 15.6474 40.0132 21.2095 40.0133 28.0708C40.0133 33.4064 32.5211 42.9148 29.1891 46.8797C35.7861 47.0597 40.9049 48.3666 40.9049 49.952C40.9049 51.6605 34.9605 53.0455 27.6278 53.0455C20.2951 53.0455 14.3507 51.6605 14.3507 49.952C14.3507 48.3672 19.4654 47.0608 26.0585 46.8799C22.7267 42.9151 15.2344 33.4065 15.2344 28.0708Z" fill="#1A56DB"/>
<path d="M24.5137 33.177C24.5137 33.1598 24.3071 33.1458 24.324 33.1452H22.1255C22.1425 33.1459 22.156 33.1598 22.156 33.177V34.552C22.156 34.6756 22.2556 34.7758 22.3785 34.7758H24.2912C24.4141 34.7758 24.5137 34.6756 24.5137 34.552V33.177Z" fill="#1A56DB"/>
<path fill-rule="evenodd" clip-rule="evenodd" d="M33.8915 21.3777C33.8915 21.254 33.7919 21.1538 33.669 21.1538H21.5052C21.3823 21.1538 21.2827 21.254 21.2827 21.3777V23.0324C21.2827 23.0501 21.2685 23.0644 21.2509 23.0644H20.2276C20.1048 23.0644 20.0051 23.1646 20.0051 23.2883V26.8536C20.0051 26.9773 20.1048 27.0775 20.2276 27.0775H21.2509C21.2615 27.0775 21.2708 27.0827 21.2766 27.0907V30.0433H21.2827V32.9212C21.2827 33.0448 21.3823 33.145 21.5052 33.145L22.1255 33.1452H24.324H30.63L33.05 33.145H33.669C33.7919 33.145 33.8915 33.0448 33.8915 32.9212V27.1095C33.8915 27.0918 33.9057 27.0775 33.9233 27.0775H34.9466C35.0694 27.0775 35.1691 26.9773 35.1691 26.8536V23.2883C35.1691 23.1646 35.0695 23.0644 34.9466 23.0644H33.9233C33.9057 23.0644 33.8915 23.0501 33.8915 23.0324V21.3777ZM24.5346 31.2904C24.5346 30.8312 24.1646 30.459 23.7082 30.459C23.2517 30.459 22.8817 30.8312 22.8817 31.2904C22.8817 31.7495 23.2517 32.1218 23.7082 32.1218C24.1646 32.1218 24.5346 31.7495 24.5346 31.2904ZM32.2925 31.2904C32.2925 30.8312 31.9225 30.459 31.466 30.459C31.0096 30.459 30.6396 30.8312 30.6396 31.2904C30.6396 31.7495 31.0096 32.1218 31.466 32.1218C31.9225 32.1218 32.2925 31.7495 32.2925 31.2904ZM33.4438 23.0724H21.7304V30.0433H33.4084L33.4438 23.0724Z" fill="#1A56DB"/>
<path d="M33.0182 33.177C33.0182 33.1593 33.0324 33.145 33.05 33.145L30.63 33.1452C30.6469 33.1458 30.6605 33.1598 30.6605 33.177V34.552C30.6605 34.6756 30.7601 34.7758 30.883 34.7758H32.7957C32.9186 34.7758 33.0182 34.6756 33.0182 34.552V33.177Z" fill="#1A56DB"/>
</svg>
